REM DIRINDEX 1\2,1\4,1\3\5,1\3\6,1\3\7
REM DIRNAME cjc082,folder01,folder02,folder03,folder04,folder05,folder06
TITLE ""
FILE "CD3Track41.mp3" MP3
  TRACK 01 AUDIO
    TITLE "0:"
    INDEX 01 00:00:00
  TRACK 02 AUDIO
    TITLE "5:cjc082_3107"
    INDEX 01 00:00:27
  TRACK 03 AUDIO
    TITLE "0:"
    INDEX 01 00:01:44
  TRACK 04 AUDIO
    TITLE "6:cjc082_3108"
    INDEX 01 00:02:12
  TRACK 05 AUDIO
    TITLE "0:"
    INDEX 01 00:03:74
  TRACK 06 AUDIO
    TITLE "5:cjc082_3109"
    INDEX 01 00:04:46
  TRACK 07 AUDIO
    TITLE "0:"
    INDEX 01 00:05:57
  TRACK 08 AUDIO
    TITLE "6:cjc082_3110"
    INDEX 01 00:06:26
  TRACK 09 AUDIO
    TITLE "0:"
    INDEX 01 00:07:39
  TRACK 10 AUDIO
    TITLE "5:cjc082_3111"
    INDEX 01 00:08:09
  TRACK 11 AUDIO
    TITLE "0:"
    INDEX 01 00:09:32
  TRACK 12 AUDIO
    TITLE "6:cjc082_3112"
    INDEX 01 00:10:04
  TRACK 13 AUDIO
    TITLE "0:"
    INDEX 01 00:11:66
  TRACK 14 AUDIO
    TITLE "5:cjc082_3113"
    INDEX 01 00:12:36
  TRACK 15 AUDIO
    TITLE "0:"
    INDEX 01 00:13:45
  TRACK 16 AUDIO
    TITLE "6:cjc082_3114"
    INDEX 01 00:14:19
  TRACK 17 AUDIO
    TITLE "0:"
    INDEX 01 00:15:21
  TRACK 18 AUDIO
    TITLE "5:cjc082_3115"
    INDEX 01 00:15:66
  TRACK 19 AUDIO
    TITLE "0:"
    INDEX 01 00:17:02
  TRACK 20 AUDIO
    TITLE "6:cjc082_3116"
    INDEX 01 00:17:47
  TRACK 21 AUDIO
    TITLE "0:"
    INDEX 01 00:19:18
  TRACK 22 AUDIO
    TITLE "5:cjc082_3117"
    INDEX 01 00:19:65
  TRACK 23 AUDIO
    TITLE "0:"
    INDEX 01 00:21:06
  TRACK 24 AUDIO
    TITLE "6:cjc082_3118"
    INDEX 01 00:21:58
  TRACK 25 AUDIO
    TITLE "0:"
    INDEX 01 00:22:68
  TRACK 26 AUDIO
    TITLE "5:cjc082_3119"
    INDEX 01 00:23:44
  TRACK 27 AUDIO
    TITLE "0:"
    INDEX 01 00:24:65
  TRACK 28 AUDIO
    TITLE "6:cjc082_3120"
    INDEX 01 00:25:39
  TRACK 29 AUDIO
    TITLE "0:"
    INDEX 01 00:29:05
  TRACK 30 AUDIO
    TITLE "5:cjc082_3121"
    INDEX 01 00:29:54
  TRACK 31 AUDIO
    TITLE "0:"
    INDEX 01 00:31:06
  TRACK 32 AUDIO
    TITLE "6:cjc082_3122"
    INDEX 01 00:31:53
  TRACK 33 AUDIO
    TITLE "0:"
    INDEX 01 00:32:68
  TRACK 34 AUDIO
    TITLE "5:cjc082_3123"
    INDEX 01 00:33:44
  TRACK 35 AUDIO
    TITLE "0:"
    INDEX 01 00:34:53
  TRACK 36 AUDIO
    TITLE "6:cjc082_3124"
    INDEX 01 00:35:23
  TRACK 37 AUDIO
    TITLE "0:"
    INDEX 01 00:36:29
  TRACK 38 AUDIO
    TITLE "5:cjc082_3125"
    INDEX 01 00:37:01
  TRACK 39 AUDIO
    TITLE "0:"
    INDEX 01 00:38:18
  TRACK 40 AUDIO
    TITLE "6:cjc082_3126"
    INDEX 01 00:38:69
  TRACK 41 AUDIO
    TITLE "0:"
    INDEX 01 00:42:06
  TRACK 42 AUDIO
    TITLE "5:cjc082_3127"
    INDEX 01 00:42:55
  TRACK 43 AUDIO
    TITLE "0:"
    INDEX 01 00:43:66
  TRACK 44 AUDIO
    TITLE "6:cjc082_3128"
    INDEX 01 00:44:42
  TRACK 45 AUDIO
    TITLE "0:"
    INDEX 01 00:49:63
  TRACK 46 AUDIO
    TITLE "5:cjc082_3129"
    INDEX 01 00:50:39
  TRACK 47 AUDIO
    TITLE "0:"
    INDEX 01 00:51:67
  TRACK 48 AUDIO
    TITLE "6:cjc082_3130"
    INDEX 01 00:52:41
  TRACK 49 AUDIO
    TITLE "0:"
    INDEX 01 00:53:45
  TRACK 50 AUDIO
    TITLE "5:cjc082_3131"
    INDEX 01 00:54:23
  TRACK 51 AUDIO
    TITLE "0:"
    INDEX 01 00:55:53
  TRACK 52 AUDIO
    TITLE "6:cjc082_3132"
    INDEX 01 00:56:33
  TRACK 53 AUDIO
    TITLE "0:"
    INDEX 01 00:57:60
  TRACK 54 AUDIO
    TITLE "5:cjc082_3133"
    INDEX 01 00:58:32
  TRACK 55 AUDIO
    TITLE "0:"
    INDEX 01 00:59:63
  TRACK 56 AUDIO
    TITLE "6:cjc082_3134"
    INDEX 01 01:00:33
  TRACK 57 AUDIO
    TITLE "0:"
    INDEX 01 01:01:52
  TRACK 58 AUDIO
    TITLE "7:cjc082_3135"
    INDEX 01 01:03:18
  TRACK 59 AUDIO
    TITLE "0:"
    INDEX 01 01:14:02
